<svg width="280" height="280" viewBox="0 0 280 280" fill="none" xmlns="http://www.w3.org/2000/svg">
<path fill-rule="evenodd" clip-rule="evenodd" d="M159.572 197.828C166.378 199.717 171.396 205.932 171.439 213.327C171.482 220.651 166.621 226.898 159.832 228.557C153.708 229.944 149.375 235.382 149.405 241.641L149.542 265.14C149.563 268.681 150.993 272.068 153.516 274.557C156.041 277.046 159.452 278.433 163.001 278.412L244.398 277.933C264.047 277.817 279.883 261.831 279.769 242.226L279.296 161.012C279.285 159.258 278.929 157.524 278.247 155.909C277.565 154.293 276.571 152.827 275.322 151.594C274.072 150.362 272.591 149.387 270.964 148.726C269.336 148.064 267.594 147.729 265.837 147.739L265.837 147.739C257.087 147.791 242.629 147.883 234.786 147.384C234.648 147.375 234.509 147.371 234.371 147.372C234.187 147.373 234.008 147.316 233.859 147.209C233.71 147.101 233.599 146.95 233.542 146.776C233.506 146.664 233.466 146.554 233.423 146.445C230.376 138.698 222.788 133.228 213.952 133.28C204.945 133.333 197.351 139.081 195.019 147.219C194.922 147.492 194.744 147.728 194.508 147.897C194.272 148.066 193.991 148.158 193.701 148.162L162.24 148.347C154.85 148.39 148.895 154.402 148.938 161.775C148.979 168.722 149.043 178.938 149.466 185.468C149.589 191.402 153.754 196.504 159.564 197.826L159.572 197.828Z" fill="#FFC628"/>
<path fill-rule="evenodd" clip-rule="evenodd" d="M265.837 147.739L253.876 147.809L253.876 147.809C257.425 147.789 260.837 149.175 263.361 151.664C265.885 154.153 267.314 157.541 267.335 161.082L267.808 242.296C267.922 261.901 252.087 277.887 232.437 278.003L244.398 277.933C264.047 277.817 279.883 261.831 279.769 242.226L279.295 161.012C279.285 159.258 278.929 157.524 278.247 155.909C277.565 154.293 276.571 152.827 275.321 151.594C274.072 150.362 272.591 149.387 270.964 148.726C269.336 148.064 267.594 147.729 265.837 147.739L265.837 147.739Z" fill="#FFC107"/>
<path fill-rule="evenodd" clip-rule="evenodd" d="M81.7124 159.218C79.8188 166.009 73.5891 171.016 66.1773 171.059C58.8378 171.102 52.576 166.252 50.914 159.479C49.5234 153.368 44.0733 149.045 37.7993 149.076L14.247 149.213C12.4899 149.224 10.7521 149.579 9.13266 150.26C7.51325 150.94 6.04401 151.932 4.80883 153.179C3.57366 154.426 2.59673 155.903 1.93385 157.527C1.27096 159.15 0.935086 160.888 0.94541 162.642L1.42306 243.855C1.53879 263.459 17.5607 279.259 37.2099 279.144L118.609 278.67C122.158 278.649 125.553 277.222 128.047 274.704C130.542 272.186 131.932 268.782 131.912 265.242C131.86 256.512 131.769 242.086 132.268 234.261C132.277 234.123 132.281 233.985 132.281 233.846C132.278 233.471 132.52 233.136 132.878 233.02C132.99 232.983 133.101 232.944 133.21 232.901C140.974 229.86 146.457 222.29 146.405 213.474C146.352 204.487 140.592 196.91 132.435 194.584C132.162 194.487 131.924 194.309 131.755 194.074C131.586 193.839 131.494 193.558 131.489 193.268L131.305 161.879C131.262 154.506 125.236 148.564 117.847 148.608C110.885 148.648 100.645 148.712 94.1011 149.135C88.1523 149.257 83.0393 153.413 81.7145 159.211L81.7124 159.218Z" fill="#9900FF"/>
<path fill-rule="evenodd" clip-rule="evenodd" d="M120.406 81.5278C113.6 79.6386 108.581 73.4237 108.538 66.0287C108.495 58.7052 113.357 52.4576 120.146 50.7992C126.27 49.4116 130.603 43.9736 130.573 37.7144L130.436 14.2154C130.415 10.6748 128.985 7.28741 126.461 4.7985C123.937 2.3096 120.525 0.923011 116.977 0.943763L35.5799 1.42302C15.9306 1.53902 0.0951377 17.5245 0.209242 37.1293L0.682551 118.344C0.692732 120.097 1.04892 121.831 1.73078 123.447C2.41264 125.063 3.40682 126.529 4.65654 127.761C5.90627 128.994 7.38707 129.969 9.01439 130.63C10.6417 131.291 12.3837 131.627 14.1408 131.616C22.8906 131.565 37.3489 131.473 45.1918 131.972C45.33 131.981 45.4686 131.984 45.6073 131.983C45.984 131.981 46.3193 132.223 46.4361 132.58C46.472 132.692 46.5118 132.802 46.5549 132.91C49.6019 140.658 57.19 146.128 66.0257 146.076C75.0327 146.023 82.6265 140.275 84.9586 132.137C85.0556 131.864 85.2339 131.628 85.4696 131.459C85.7052 131.29 85.987 131.198 86.2769 131.193L117.738 131.009C125.127 130.966 131.083 124.953 131.04 117.581C130.999 110.634 130.935 100.417 130.512 93.8882C130.389 87.9534 126.224 82.8521 120.414 81.5299L120.406 81.5278Z" fill="#FF00FB"/>
<path fill-rule="evenodd" clip-rule="evenodd" d="M198.274 120.136C200.167 113.345 206.397 108.338 213.808 108.295C221.148 108.252 227.41 113.102 229.072 119.876C230.463 125.986 235.913 130.308 242.186 130.279L265.739 130.141C269.287 130.12 272.682 128.694 275.177 126.175C277.672 123.657 279.061 120.253 279.041 116.712L278.563 35.4998C278.447 15.8951 262.426 0.0953357 242.776 0.210244L161.377 0.684635C159.62 0.69484 157.882 1.05027 156.262 1.73063C154.643 2.41098 153.174 3.40295 151.938 4.64987C150.703 5.8968 149.726 7.37427 149.063 8.99793C148.4 10.6216 148.064 12.3596 148.074 14.1128C148.125 22.8428 148.217 37.2683 147.717 45.0934C147.708 45.2314 147.705 45.3697 147.706 45.508C147.708 45.8839 147.466 46.2183 147.107 46.3349C146.996 46.3708 146.886 46.4105 146.776 46.4535C139.011 49.4938 133.529 57.0649 133.581 65.8806C133.633 74.8671 139.394 82.4435 147.551 84.7702C147.824 84.867 148.061 85.0449 148.23 85.28C148.399 85.5151 148.492 85.7962 148.496 86.0855L148.68 117.475C148.724 124.848 154.749 130.79 162.139 130.747C169.101 130.706 179.341 130.641 185.885 130.22C191.833 130.097 196.946 125.941 198.272 120.144L198.274 120.136Z" fill="#42A5F5"/>
<path fill-rule="evenodd" clip-rule="evenodd" d="M242.776 0.210297L230.816 0.280243C250.465 0.165335 266.486 15.9651 266.602 35.5698L267.08 116.782C267.09 118.536 266.755 120.274 266.092 121.897C265.429 123.521 264.452 124.998 263.217 126.245C261.981 127.492 260.512 128.484 258.893 129.165C257.273 129.845 255.536 130.201 253.778 130.211L265.739 130.141C269.287 130.12 272.682 128.694 275.177 126.175C277.672 123.657 279.061 120.253 279.041 116.712L278.563 35.4999C278.447 15.8951 262.425 0.0953894 242.776 0.210297Z" fill="#2196F3"/>
</svg>
