<svg xmlns="http://www.w3.org/2000/svg" version="1.1" xmlns:xlink="http://www.w3.org/1999/xlink" width="512" height="512" x="0" y="0" viewBox="0 0 68 68" style="enable-background:new 0 0 512 512" xml:space="preserve" class=""><g><path fill="#edeef2" d="m47.068 26.453-.039 13.373-12.003 6.976-12.08-6.976.039-13.373 12.003-6.966z" opacity="1" data-original="#edeef2"></path><path fill="#d3d3dd" d="m35.069 33.43-.038 13.37-12.08-6.975.038-13.37z" opacity="1" data-original="#d3d3dd"></path><path fill="#e0e1ec" d="m47.065 26.458-.038 13.37L35.03 46.8l.038-13.37z" opacity="1" data-original="#e0e1ec"></path><path fill="#edeef2" d="M47.065 26.458 35.069 33.43l-12.08-6.974 11.995-6.971zM62.632 35.44l-.039 13.372-12.002 6.976-12.08-6.976.038-13.373 12.003-6.966z" opacity="1" data-original="#edeef2"></path><path fill="#d3d3dd" d="m50.633 42.415-.038 13.37-12.08-6.974.038-13.37z" opacity="1" data-original="#d3d3dd"></path><path fill="#e0e1ec" d="m62.629 35.444-.038 13.37-11.996 6.972.038-13.37z" opacity="1" data-original="#e0e1ec"></path><path fill="#edeef2" d="m62.629 35.444-11.996 6.971-12.08-6.974 11.996-6.971z" opacity="1" data-original="#edeef2"></path><path fill="#ffd86a" d="m47.068 8.97-.039 13.373-12.003 6.976-12.08-6.976.039-13.373 12.003-6.966z" opacity="1" data-original="#ffd86a"></path><path fill="#ffd86a" d="m47.065 8.975-11.996 6.97-12.08-6.974L34.984 2z" opacity="1" data-original="#ffd86a"></path><path fill="#fccb4f" d="m47.065 8.975-.038 13.37-11.996 6.971.038-13.37z" opacity="1" data-original="#fccb4f"></path><path fill="#f7b92f" d="m35.069 15.946-.038 13.37-12.08-6.974.038-13.37z" opacity="1" data-original="#f7b92f"></path><path fill="#ff3d47" d="m62.632 17.956-.039 13.373-12.002 6.976-12.08-6.976.038-13.373 12.003-6.966z" opacity="1" data-original="#ff3d47"></path><path fill="#e8183b" d="m50.633 24.932-.038 13.37-12.08-6.974.038-13.37z" opacity="1" data-original="#e8183b"></path><path fill="#ef253d" d="m62.629 17.96-.038 13.371-11.996 6.971.038-13.37z" opacity="1" data-original="#ef253d"></path><path fill="#ff3d47" d="m62.629 17.96-11.996 6.972-12.08-6.975 11.996-6.971z" opacity="1" data-original="#ff3d47"></path><path fill="#edeef2" d="m29.49 36.665-.04 13.373-12.002 6.976-12.08-6.976.039-13.373L17.409 29.7z" opacity="1" data-original="#edeef2"></path><path fill="#d3d3dd" d="m17.49 43.641-.037 13.37-12.08-6.974.037-13.37z" opacity="1" data-original="#d3d3dd"></path><path fill="#e0e1ec" d="m29.486 36.67-.037 13.37-11.996 6.972.038-13.37z" opacity="1" data-original="#e0e1ec"></path><path fill="#edeef2" d="m29.486 36.67-11.995 6.971-12.08-6.974 11.995-6.972z" opacity="1" data-original="#edeef2"></path><path fill="#423751" d="m45.054 45.651-.039 13.373L33.012 66l-12.08-6.976.039-13.373 12.003-6.966z" opacity="1" data-original="#423751"></path><path fill="#382e49" d="m45.05 45.656-.037 13.37-11.996 6.972.038-13.371z" opacity="1" data-original="#382e49"></path><path fill="#312944" d="m33.055 52.627-.038 13.37-12.08-6.974.038-13.37z" opacity="1" data-original="#312944"></path><path fill="#423751" d="m45.05 45.656-11.995 6.971-12.08-6.974L32.97 38.68z" opacity="1" data-original="#423751"></path><path fill="#ff3d47" d="m29.49 19.182-.04 13.373-12.002 6.975-12.08-6.975.039-13.373 12.002-6.967z" opacity="1" data-original="#ff3d47"></path><path fill="#ef253d" d="m29.486 19.186-.037 13.371-11.996 6.971.038-13.37z" opacity="1" data-original="#ef253d"></path><path fill="#e8183b" d="m17.49 26.157-.037 13.371-12.08-6.974.037-13.371z" opacity="1" data-original="#e8183b"></path><path fill="#ff3d47" d="m29.486 19.186-11.995 6.971-12.08-6.974 11.995-6.971z" opacity="1" data-original="#ff3d47"></path><path fill="#ffd86a" d="m45.054 28.168-.039 13.373-12.003 6.975-12.08-6.975.039-13.373L32.974 21.2z" opacity="1" data-original="#ffd86a"></path><path fill="#f7b92f" d="m33.055 35.143-.038 13.371-12.08-6.974.038-13.371z" opacity="1" data-original="#f7b92f"></path><path fill="#fccb4f" d="m45.05 28.172-.037 13.371-11.996 6.971.038-13.37z" opacity="1" data-original="#fccb4f"></path><path fill="#ffd86a" d="m45.05 28.172-11.995 6.971-12.08-6.974 11.995-6.971z" opacity="1" data-original="#ffd86a"></path></g></svg>