<svg xmlns="http://www.w3.org/2000/svg" version="1.1" xmlns:xlink="http://www.w3.org/1999/xlink" width="512" height="512" x="0" y="0" viewBox="0 0 24 24" style="enable-background:new 0 0 512 512" xml:space="preserve" fill-rule="evenodd" class=""><g><linearGradient id="a" x1="0" x2="1" y1="0" y2="0" gradientTransform="matrix(15.004 0 0 16.331 107.623 125.085)" gradientUnits="userSpaceOnUse"><stop offset="0" stop-color="#00deff"></stop><stop offset="1" stop-color="#009dff"></stop></linearGradient><path fill="url(#a)" d="M108.429 120.472c.194-.206.42-.386.672-.531l4.546-2.625a2.956 2.956 0 0 1 2.956 0l4.546 2.625c.252.145.478.325.672.531l-6.696 3.866zm14.074 1.181c.081.271.124.556.124.847v5.25a2.954 2.954 0 0 1-1.478 2.559l-4.546 2.625a2.97 2.97 0 0 1-.796.317v-7.732zm-8.06 11.598a2.97 2.97 0 0 1-.796-.317l-4.546-2.625a2.954 2.954 0 0 1-1.478-2.559v-5.25c0-.291.043-.576.124-.847l6.696 3.866z" transform="matrix(1.1 0 0 1.1 -114.605 -125.602)" opacity="1" data-original="url(#a)"></path></g></svg>