<svg xmlns="http://www.w3.org/2000/svg" version="1.1" xmlns:xlink="http://www.w3.org/1999/xlink" width="512" height="512" x="0" y="0" viewBox="0 0 512 512" style="enable-background:new 0 0 512 512" xml:space="preserve" class=""><g><linearGradient id="a"><stop offset="0" stop-color="#2f97f7"></stop><stop offset="1" stop-color="#79d3fe"></stop></linearGradient><linearGradient xlink:href="#a" id="e" x1="109.305" x2="190.033" y1="275.926" y2="275.926" gradientUnits="userSpaceOnUse"></linearGradient><linearGradient xlink:href="#a" id="f" x1="460.9" x2="496.45" y1="277.153" y2="277.153" gradientUnits="userSpaceOnUse"></linearGradient><linearGradient xlink:href="#a" id="g" x1="414.335" x2="432.962" y1="337.457" y2="337.457" gradientUnits="userSpaceOnUse"></linearGradient><linearGradient xlink:href="#a" id="h" x1="277.609" x2="310.549" y1="347.899" y2="347.899" gradientUnits="userSpaceOnUse"></linearGradient><linearGradient xlink:href="#a" id="i" x1="195.019" x2="213.953" y1="326.048" y2="326.048" gradientUnits="userSpaceOnUse"></linearGradient><linearGradient xlink:href="#a" id="j" x1="161.957" x2="447.909" y1="154.807" y2="319.901" gradientUnits="userSpaceOnUse"></linearGradient><linearGradient xlink:href="#a" id="k" x1="264.943" x2="242.95" y1="328.137" y2="328.137" gradientUnits="userSpaceOnUse"></linearGradient><linearGradient xlink:href="#a" id="l" x1="374.469" x2="354.529" y1="332.554" y2="332.554" gradientUnits="userSpaceOnUse"></linearGradient><linearGradient xlink:href="#a" id="m" x1="-3705.701" x2="-3608.508" y1="253.842" y2="253.842" gradientTransform="matrix(-1 0 0 1 -3328 0)" gradientUnits="userSpaceOnUse"></linearGradient><linearGradient xlink:href="#a" id="n" x1="238.871" x2="389.806" y1="181.858" y2="269" gradientUnits="userSpaceOnUse"></linearGradient><linearGradient xlink:href="#a" id="o" x1="331.478" x2="264.259" y1="235.325" y2="196.516" gradientUnits="userSpaceOnUse"></linearGradient><linearGradient id="b"><stop offset="0" stop-color="#ab2c37"></stop><stop offset="1" stop-color="#ff4757"></stop></linearGradient><linearGradient xlink:href="#b" id="p" x1="357.792" x2="384.352" y1="67.151" y2="21.147" gradientUnits="userSpaceOnUse"></linearGradient><linearGradient id="q" x1="377.805" x2="377.805" y1="126.794" y2="60.22" gradientUnits="userSpaceOnUse"><stop offset="0" stop-color="#ff4757"></stop><stop offset="1" stop-color="#ff7a85"></stop></linearGradient><linearGradient id="c"><stop offset="0" stop-color="#e37a34"></stop><stop offset="1" stop-color="#ffa538"></stop></linearGradient><linearGradient xlink:href="#c" id="r" x1="440.496" x2="448.441" y1="100.094" y2="86.332" gradientUnits="userSpaceOnUse"></linearGradient><linearGradient id="d"><stop offset="0" stop-color="#ffc538"></stop><stop offset="1" stop-color="#f7e041"></stop></linearGradient><linearGradient xlink:href="#d" id="s" x1="503.455" x2="503.455" y1="-335.996" y2="-396.483" gradientTransform="matrix(.866 -.5 0 1.155 33.407 774.312)" gradientUnits="userSpaceOnUse"></linearGradient><linearGradient id="t" x1="28.387" x2="36.332" y1="248.532" y2="234.771" gradientUnits="userSpaceOnUse"><stop offset="0" stop-color="#236568"></stop><stop offset="1" stop-color="#2f878a"></stop></linearGradient><linearGradient id="u" x1="27.578" x2="27.578" y1="-413.505" y2="-473.992" gradientTransform="matrix(.866 -.5 0 1.155 33.407 774.312)" gradientUnits="userSpaceOnUse"><stop offset="0" stop-color="#2f878a"></stop><stop offset="1" stop-color="#06daae"></stop></linearGradient><linearGradient xlink:href="#b" id="v" x1="146.684" x2="161.705" y1="362.503" y2="336.488" gradientUnits="userSpaceOnUse"></linearGradient><linearGradient id="w" x1="166.615" x2="183.013" y1="375.417" y2="347.015" gradientUnits="userSpaceOnUse"><stop offset="0" stop-color="#c5baeb"></stop><stop offset="1" stop-color="#f2effa"></stop></linearGradient><linearGradient xlink:href="#d" id="x" x1="248.098" x2="264.23" y1="426.938" y2="398.997" gradientUnits="userSpaceOnUse"></linearGradient><linearGradient xlink:href="#c" id="y" x1="314.571" x2="390.183" y1="456.955" y2="456.955" gradientUnits="userSpaceOnUse"></linearGradient><path fill="#43386b" d="M308.839 367.298c-.325 0-.659-.03-.994-.101a5.027 5.027 0 0 1-.943-.284 5.606 5.606 0 0 1-.872-.466 5.225 5.225 0 0 1-.771-.639c-.943-.943-1.49-2.241-1.49-3.579s.548-2.646 1.49-3.589c.233-.233.487-.446.771-.629.274-.182.568-.334.872-.466a5.103 5.103 0 0 1 5.526 1.095 5.106 5.106 0 0 1 1.48 3.589c0 .324-.031.659-.101.994a5.286 5.286 0 0 1-.284.943 5.606 5.606 0 0 1-.466.872 4.653 4.653 0 0 1-.629.771 5.879 5.879 0 0 1-.771.639 5.072 5.072 0 0 1-1.825.75c-.324.07-.658.1-.993.1zM303.77 429.216a5.071 5.071 0 0 1 5.069-5.069 5.071 5.071 0 0 1 5.069 5.069 5.069 5.069 0 0 1-10.138 0zm0-22.325a5.073 5.073 0 0 1 5.069-5.079 5.073 5.073 0 0 1 5.069 5.079 5.071 5.071 0 0 1-5.069 5.069 5.07 5.07 0 0 1-5.069-5.069zm0-22.336a5.071 5.071 0 0 1 5.069-5.069 5.071 5.071 0 0 1 5.069 5.069 5.07 5.07 0 0 1-5.069 5.069 5.07 5.07 0 0 1-5.069-5.069zM308.839 456.611c-.325 0-.659-.03-.994-.101a5.027 5.027 0 0 1-.943-.284 5.606 5.606 0 0 1-.872-.466c-.284-.183-.538-.396-.771-.629s-.446-.496-.639-.77a5.212 5.212 0 0 1-.466-.882 5.027 5.027 0 0 1-.284-.943 4.652 4.652 0 0 1-.102-.994c0-1.328.548-2.636 1.49-3.579.233-.233.487-.446.771-.639.274-.183.568-.335.872-.466.304-.122.618-.223.943-.284a5.035 5.035 0 0 1 1.987 0c.324.061.639.162.943.284.314.132.608.284.882.466a5.1 5.1 0 0 1 2.251 4.218c0 .335-.031.669-.101.994a5.027 5.027 0 0 1-.284.943 5.048 5.048 0 0 1-1.095 1.652c-.233.233-.497.446-.771.629a5.141 5.141 0 0 1-1.825.75 4.626 4.626 0 0 1-.992.101z" opacity="1" data-original="#43386b"></path><path fill="url(#a)" d="M492.437 296.453v-40.062l-46.132-36.496v-40.258L142.87 165.941v40.79l-30.364 9.298v39.359c-.032.306-.04.616 0 .934l3.006 24.173c.398 3.198 4.422 6.16 9.858 7.256l33.262 6.709v38.657c.171 1.899 1.654 3.841 4.276 5.355l31.731 18.32c4.198 2.423 10.298 3.16 14.944 1.806l41.871-12.212a231.35 231.35 0 0 0 13.921 3.794l17.116 28.286c1.899 3.138 7.03 5.461 12.569 5.691l41.869 1.736c5.539.23 10.142-1.69 11.276-4.703l10.222-27.152a184.711 184.711 0 0 0 13.117-2.673l45.358 15.828c5.033 1.756 11.012 1.52 14.647-.579l27.48-15.866c1.809-1.045 2.818-2.425 3.002-3.905a4.07 4.07 0 0 0 0-.923v-39.37l-1.387-.955 23.632-2.965c5.032-.632 8.294-3.13 8.161-6.177z" opacity="1" data-original="url(#a)"></path><path fill="url(#a)" d="M484.273 302.63c5.035-.632 8.297-3.13 8.163-6.177v-40.062l-56.239-7.681-3.582 27.1 28.026 29.785z" opacity="1" data-original="url(#a)"></path><path fill="url(#a)" d="m431.547 366.613 27.48-15.866c1.809-1.045 2.818-2.425 3.002-3.905a4.07 4.07 0 0 0 0-.923v-39.37l-90.487 4.522v40.293l45.358 15.828c5.032 1.757 11.011 1.52 14.647-.579z" opacity="1" data-original="url(#a)"></path><path fill="url(#a)" d="m295.058 384.157 41.869 1.736c5.539.23 10.142-1.69 11.276-4.703l10.222-27.152v-40.294l-93.051-3.857v40.294l17.116 28.286c1.899 3.137 7.03 5.46 12.568 5.69z" opacity="1" data-original="url(#a)"></path><path fill="url(#a)" d="m158.632 292.825-.605 1.514.605.122v38.657c.171 1.899 1.654 3.841 4.276 5.355l31.731 18.32c4.198 2.423 10.298 3.16 14.944 1.806l41.871-12.212v-40.293z" opacity="1" data-original="url(#a)"></path><path fill="url(#a)" d="m395.343 153.55-41.871 12.212a230.772 230.772 0 0 0-13.92-3.793l-17.116-28.286c-1.899-3.139-7.03-5.462-12.569-5.691l-41.869-1.736c-5.539-.23-10.142 1.69-11.276 4.703L246.5 158.111a184.24 184.24 0 0 0-13.116 2.673l-45.358-15.828c-5.033-1.756-11.012-1.52-14.647.579l-27.48 15.866c-3.635 2.099-4.045 5.551-1.003 8.457l27.415 26.187a53.806 53.806 0 0 0-4.629 7.573l-47.029 5.902c-5.218.655-8.543 3.312-8.146 6.51l3.006 24.173c.398 3.198 4.422 6.16 9.858 7.257l48.992 9.882a86.219 86.219 0 0 0 6.57 8.037l-21.152 24.174c-2.347 2.682-1.07 6.204 3.127 8.628l31.731 18.32c4.198 2.424 10.298 3.161 14.944 1.806l41.871-12.212a231.344 231.344 0 0 0 13.921 3.793l17.116 28.285c1.899 3.138 7.03 5.462 12.569 5.691l41.869 1.736c5.539.23 10.142-1.69 11.276-4.703l10.222-27.152a184.825 184.825 0 0 0 13.117-2.672l45.358 15.828c5.033 1.756 11.012 1.52 14.647-.579l27.48-15.866c3.635-2.099 4.045-5.551 1.003-8.457l-27.415-26.187a53.806 53.806 0 0 0 4.629-7.573l47.029-5.902c5.218-.655 8.543-3.312 8.146-6.51l-3.006-24.173c-.398-3.198-4.422-6.16-9.858-7.257l-48.992-9.882a86.219 86.219 0 0 0-6.57-8.037l21.152-24.174c2.347-2.682 1.07-6.204-3.127-8.628l-31.731-18.32c-4.2-2.424-10.301-3.161-14.946-1.806z" opacity="1" data-original="url(#a)"></path><path fill="url(#a)" d="m265.374 350.18-13.921-3.793v-40.294l13.921 3.794z" opacity="1" data-original="url(#a)"></path><path fill="url(#a)" d="M358.425 354.037v-40.293l13.117-2.673v40.294z" opacity="1" data-original="url(#a)"></path><path fill="url(#a)" d="M401.801 230.024v16.297l-.019-.001c.371 12.649-7.075 24.775-22.671 33.779-33.61 19.405-92.317 16.971-131.127-5.435-20.644-11.919-31.499-27.088-32.079-41.598l-.026-.002v-18.578z" opacity="1" data-original="url(#a)"></path><path fill="url(#a)" d="M238.57 181.684c33.61-19.405 92.317-16.971 131.127 5.436 38.809 22.407 43.024 56.301 9.414 75.706s-92.317 16.971-131.127-5.435c-38.809-22.407-43.024-56.302-9.414-75.707z" opacity="1" data-original="url(#a)"></path><path fill="url(#a)" d="M274.202 202.257c16.567-9.565 45.505-8.365 64.635 2.679 19.13 11.045 21.208 27.752 4.641 37.317s-45.505 8.365-64.635-2.679c-19.13-11.045-21.208-27.752-4.641-37.317z" opacity="1" data-original="url(#a)"></path><path fill="#43386b" d="M462.528 244.698c-2.8 0-5.069-2.27-5.069-5.069v-120.52a5.069 5.069 0 0 1 10.138 0v120.519c0 2.8-2.27 5.07-5.069 5.07zM308.839 247.488a5.104 5.104 0 0 1-3.579-1.48 5.879 5.879 0 0 1-.639-.771 5.523 5.523 0 0 1-.466-.872 5.387 5.387 0 0 1-.284-.953 4.652 4.652 0 0 1-.102-.994c0-1.328.548-2.636 1.49-3.579.233-.233.487-.446.771-.628.274-.183.568-.345.872-.466.304-.132.618-.223.943-.294a5.035 5.035 0 0 1 1.987 0c.324.071.639.162.943.294.314.121.608.284.882.466s.538.395.771.628a5.1 5.1 0 0 1 1.48 3.579c0 .335-.031.669-.101.994a5.387 5.387 0 0 1-.284.953 5.606 5.606 0 0 1-.466.872 5.056 5.056 0 0 1-.629.771 5.116 5.116 0 0 1-.771.629 4.894 4.894 0 0 1-.882.466 5.102 5.102 0 0 1-.943.294c-.324.06-.658.091-.993.091zM303.77 222.718a5.064 5.064 0 0 1 5.069-5.069 5.065 5.065 0 0 1 5.069 5.069 5.069 5.069 0 0 1-10.138 0zm0-19.71a5.071 5.071 0 0 1 5.069-5.069 5.071 5.071 0 0 1 5.069 5.069 5.071 5.071 0 0 1-5.069 5.07 5.07 5.07 0 0 1-5.069-5.07zm0-19.709a5.072 5.072 0 0 1 5.069-5.07 5.071 5.071 0 0 1 5.069 5.07 5.071 5.071 0 0 1-5.069 5.069 5.07 5.07 0 0 1-5.069-5.069zm0-19.71a5.07 5.07 0 0 1 5.069-5.069 5.071 5.071 0 0 1 5.069 5.069 5.071 5.071 0 0 1-5.069 5.069 5.07 5.07 0 0 1-5.069-5.069zm0-19.7a5.065 5.065 0 0 1 5.069-5.069 5.065 5.065 0 0 1 5.069 5.069 5.07 5.07 0 0 1-5.069 5.069 5.07 5.07 0 0 1-5.069-5.069zm0-19.71a5.071 5.071 0 0 1 5.069-5.069 5.071 5.071 0 0 1 5.069 5.069 5.07 5.07 0 0 1-5.069 5.069 5.07 5.07 0 0 1-5.069-5.069zm0-19.71a5.071 5.071 0 0 1 5.069-5.069 5.071 5.071 0 0 1 5.069 5.069 5.07 5.07 0 0 1-10.138 0zm0-19.71a5.07 5.07 0 0 1 5.069-5.069 5.071 5.071 0 0 1 5.069 5.069 5.07 5.07 0 0 1-10.138 0zm0-19.7a5.065 5.065 0 0 1 5.069-5.069 5.065 5.065 0 0 1 5.069 5.069 5.069 5.069 0 0 1-10.138 0zM308.839 50.419c-.325 0-.659-.041-.994-.102a4.407 4.407 0 0 1-.943-.294 4.809 4.809 0 0 1-.872-.466 4.607 4.607 0 0 1-.771-.628 5.11 5.11 0 0 1-1.49-3.579c0-.335.03-.669.102-.994a5.05 5.05 0 0 1 .284-.943c.132-.314.284-.608.466-.882.193-.274.406-.538.639-.771a5.108 5.108 0 0 1 5.516-1.095c.304.132.608.284.882.466.274.183.538.396.771.629s.446.497.629.771a5.126 5.126 0 0 1 .75 1.825c.071.324.101.659.101.994a5.104 5.104 0 0 1-1.48 3.579 5.05 5.05 0 0 1-.771.628 4.526 4.526 0 0 1-.882.466 4.442 4.442 0 0 1-.943.294 5.405 5.405 0 0 1-.994.102zM52.104 337.76a5.071 5.071 0 0 1-5.07-5.069v-89.817a5.07 5.07 0 0 1 10.138 0v81.036l90.311-52.145a5.07 5.07 0 0 1 5.07 8.78L54.639 337.08c-.785.453-1.66.68-2.535.68z" opacity="1" data-original="#43386b"></path><path fill="url(#b)" d="m379.827 24.589-.005.01c-4.565-2.609-10.504-2.359-17.003 1.394-14.397 8.312-26.069 30.613-26.069 49.809 0 10.445 3.46 17.809 8.93 21.023l15.159 8.724 34.38-72.104z" opacity="1" data-original="url(#b)"></path><path fill="url(#q)" d="M403.874 54.311c0-19.196-11.671-28.02-26.069-19.708-14.397 8.312-26.069 30.613-26.069 49.809s11.671 28.02 26.069 19.707c14.398-8.311 26.069-30.611 26.069-49.808z" opacity="1" data-original="url(#q)"></path><path fill="url(#c)" d="m509.001 44.109-15.05-8.642c-1.65-.909-3.782-.806-6.113.54L421.583 74.26c-5.232 3.021-9.473 11.125-9.473 18.101v35.695c0 3.776 1.249 6.434 3.218 7.612l14.57 8.372z" opacity="1" data-original="url(#c)"></path><path fill="url(#d)" d="M502.526 44.436 436.27 82.689c-5.232 3.021-9.473 11.125-9.473 18.101v35.695c0 6.976 4.241 10.182 9.473 7.162l66.256-38.253c5.232-3.021 9.474-11.125 9.474-18.101V51.597c0-6.976-4.241-10.182-9.474-7.161z" opacity="1" data-original="url(#d)"></path><path fill="url(#t)" d="m96.892 192.548-15.05-8.642c-1.65-.909-3.782-.806-6.113.54L9.473 222.699C4.241 225.72 0 233.824 0 240.8v35.695c0 3.776 1.249 6.434 3.218 7.611l14.57 8.372z" opacity="1" data-original="url(#t)"></path><path fill="url(#u)" d="m90.417 192.874-66.256 38.253c-5.232 3.021-9.473 11.125-9.473 18.101v35.695c0 6.976 4.241 10.182 9.474 7.162l66.256-38.253c5.232-3.021 9.474-11.125 9.474-18.101v-35.695c-.002-6.976-4.243-10.182-9.475-7.162z" opacity="1" data-original="url(#u)"></path><path fill="url(#b)" d="M139.257 307.387c-3.638-2.276-8.456-2.159-13.742.893-11.333 6.543-20.52 24.097-20.52 39.207 0 8.561 2.95 14.499 7.567 16.85l68.284 38.722 27.573-56.438z" opacity="1" data-original="url(#b)"></path><path fill="url(#w)" d="M172.227 322.839c-3.988-2.495-9.27-2.367-15.065.979-12.424 7.173-22.495 26.416-22.495 42.981 0 9.385 3.233 15.895 8.295 18.472l32.828 18.543c8.443 4.769 19.158 1.441 23.414-7.271l15.417-31.558c3.911-8.004.911-17.67-6.845-22.053z" opacity="1" data-original="url(#w)"></path><path fill="url(#d)" d="M207.621 346.228c-3.681-2.303-8.557-2.185-13.905.903-11.467 6.62-20.764 24.383-20.764 39.672 0 8.662 2.985 14.671 7.657 17.05l140.536 79.501 27.9-57.108z" opacity="1" data-original="url(#d)"></path><path fill="url(#c)" d="M384.36 489.116c4.59.319 7.475-4.853 4.792-8.59l-36.583-50.966-.035-.049c-3.734-5.188-10.043-6.372-17.199-2.241-11.467 6.621-20.764 24.383-20.764 39.673 0 11.367 5.14 18.161 12.488 18.182z" opacity="1" data-original="url(#c)"></path><path fill="#43386b" d="m366.598 487.879 17.761 1.237c4.589.319 7.475-4.853 4.792-8.59l-11.528-16.06-.007.013c-1.554-2.553-4.38-3.238-7.618-1.368-4.91 2.835-8.89 10.439-8.89 16.986 0 4.441 1.835 7.247 4.546 7.712l-.002.004.029.002c.297.049.602.072.917.064z" opacity="1" data-original="#43386b"></path></g></svg>